Coordinates
version=1
nRows=17
nColumns=36
inDegrees=yes

Units are S.I. units (second, meters, Newtons, ...)
If the header above contains a line with 'inDegrees', this indicates whether rotational values are in degrees (yes) or radians (no).

endheader
time	pelvis_tilt	pelvis_list	pelvis_rotation	pelvis_tx	pelvis_ty	pelvis_tz	hip_flexion_r	hip_adduction_r	hip_rotation_r	knee_angle_r	knee_angle_r_beta	ankle_angle_r	subtalar_angle_r	mtp_angle_r	hip_flexion_l	hip_adduction_l	hip_rotation_l	knee_angle_l	knee_angle_l_beta	ankle_angle_l	subtalar_angle_l	mtp_angle_l	lumbar_extension	lumbar_bending	lumbar_rotation	arm_flex_r	arm_add_r	arm_rot_r	elbow_flex_r	pro_sup_r	arm_flex_l	arm_add_l	arm_rot_l	elbow_flex_l	pro_sup_l
     19.71666670	     -3.96381736	     -2.13681151	      2.79772114	      0.14582019	      0.90658569	     -0.10546828	     -1.53816266	     -6.53886745	    -13.72771977	      0.49028936	      0.00855716	      7.75666733	     -0.77820554	     -7.49999987	      1.62954516	    -11.02653007	     10.48458958	      0.37702431	      0.00658032	      6.62920302	     -3.31192243	     -7.49999987	      0.62665060	      3.18088035	     -6.07734444	     28.07219569	      3.15552556	     59.55775568	    124.03531443	     91.68839092	     44.36968127	     11.25434752	     73.95174454	    120.85879560	     70.26144121
     19.73333330	     -3.85149731	     -2.13721452	      2.86928684	      0.15079617	      0.90763552	     -0.10257228	     -1.72987671	     -6.47583877	    -13.73013230	      0.47057113	      0.00821302	      7.81162646	     -0.88702045	     -7.49999987	      1.46840242	    -11.08085316	     10.57993657	      0.37193442	      0.00649148	      6.63757826	     -3.30539802	     -7.49999987	      0.60225195	      3.10244071	     -6.16837302	     28.00589661	      3.29102070	     60.00287470	    124.23476544	     91.97183146	     44.24492043	     11.12344724	     73.98767374	    121.01578816	     70.35726022
     19.75000000	     -3.90359949	     -2.20224234	      2.87064488	      0.15131913	      0.90471383	     -0.10264204	     -1.74637272	     -6.36321079	    -13.67450813	      0.47987491	      0.00837540	      7.81594626	     -1.04224698	     -7.49999987	      1.44356787	    -11.18828669	     10.44924737	      0.37271656	      0.00650513	      6.81774716	     -3.12935718	     -7.49999987	      0.79745095	      3.12344879	     -6.27497200	     27.77084762	      3.46931645	     60.23369438	    124.40924177	     91.12555252	     44.09089748	     11.08014366	     73.76896949	    121.12111696	     70.16147432
     19.76666670	     -3.73374231	     -2.19730761	      2.90573426	      0.15069535	      0.90774805	     -0.10263389	     -2.01437186	     -6.32499133	    -13.70645500	      0.47521744	      0.00829411	      7.97390991	     -0.92958918	     -7.49999987	      1.20196029	    -11.23576098	     10.39702188	      0.36935366	      0.00644644	      6.79244064	     -3.07985483	     -7.49999987	      0.67624213	      3.08018042	     -6.29738317	     27.68176468	      3.59108789	     60.28447248	    124.35410691	     94.88495740	     44.01211208	     10.92770517	     73.74799300	    121.17684984	     71.45318368
     19.78333330	     -3.77231322	     -2.20080656	      2.86831640	      0.15106841	      0.90475879	     -0.10268659	     -2.04323849	     -6.31135661	    -13.60695540	      0.48304194	      0.00843067	      8.12049831	     -0.99699618	     -7.49999987	      1.13645720	    -11.28625751	     10.38535921	      0.36984640	      0.00645504	      6.96547798	     -2.97429374	     -7.49999987	      0.79487153	      3.01642415	     -6.26309592	     27.70519590	      3.56410419	     60.45370390	    124.46526562	     93.70894782	     43.96914807	     10.89102435	     73.52322295	    121.41322687	     71.15162429
     19.80000000	     -3.80793185	     -2.22071512	      2.84422099	      0.15111434	      0.90277247	     -0.10270013	     -2.04557828	     -6.27789849	    -13.53644722	      0.47176878	      0.00823392	      8.21772079	     -1.17453841	     -7.49999987	      1.10926683	    -11.32945493	     10.27401961	      0.36119342	      0.00630401	      7.16846075	     -2.77089078	     -7.49999987	      0.88088219	      2.98132691	     -6.26082010	     27.89592800	      3.47598147	     60.40444353	    124.58805639	     92.84895944	     43.94275476	     10.88794667	     73.28383564	    121.60234680	     70.89556964
     19.81666670	     -3.84612678	     -2.23017167	      2.77177035	      0.15091421	      0.90504806	     -0.10277752	     -2.01636437	     -6.26429753	    -13.52421024	      0.46706636	      0.00815185	      8.30716436	     -1.14590755	     -7.49999987	      1.08114173	    -11.35568311	     10.33137114	      0.34512904	      0.00602364	      7.17293982	     -3.03194532	     -7.49999987	      0.90151482	      2.95887304	     -6.35546442	     27.80829022	      3.51583773	     60.43308876	    124.53645715	     94.96239590	     43.95962350	     10.78257181	     73.02705434	    121.42560698	     71.45436544
     19.83333330	     -3.91330225	     -2.21943984	      2.71240709	      0.14544834	      0.90468552	     -0.10588258	     -1.87050170	     -6.33194447	    -13.56368440	      0.45861672	      0.00800437	      8.35325987	     -1.17148622	     -7.49999987	      1.17640467	    -11.29379472	     10.30176584	      0.33973947	      0.00592957	      7.23774346	     -3.05851334	     -7.49999987	      0.77490432	      3.02290383	     -6.40535362	     27.86287709	      3.46974098	     60.40588769	    124.53729754	     94.96280101	     44.05658110	     10.79823310	     72.96954111	    121.39632392	     71.45149303
     19.85000000	     -3.94119765	     -2.22285981	      2.75198678	      0.15089198	      0.90539413	     -0.10280339	     -1.84338307	     -6.30002551	    -13.54200523	      0.45812326	      0.00799576	      8.36528945	     -1.16115864	     -7.49999987	      1.24181693	    -11.29240305	     10.28632454	      0.34991353	      0.00610714	      7.22554040	     -3.06908045	     -7.49999987	      0.71088623	      2.96652848	     -6.40850806	     27.88139664	      3.47422485	     60.40393781	    124.51750567	     94.96416357	     44.09910354	     10.79483876	     72.91943587	    121.36682431	     71.44882461
     19.86666670	     -3.97210399	     -2.20952730	      2.66321145	      0.15072354	      0.90573927	     -0.10277694	     -1.82148908	     -6.29653470	    -13.47764472	      0.43826885	      0.00764923	      8.34474733	     -1.07575008	     -7.49999987	      1.22442277	    -11.27960778	     10.16924106	      0.33578076	      0.00586048	      7.07498340	     -3.03873407	     -7.49999987	      0.82061382	      2.86072217	     -6.44349928	     27.84715095	      3.60461189	     60.71590381	    124.34663411	     93.98729439	     44.03495666	     10.84338721	     72.47066457	    121.07734848	     71.10751271
     19.88333330	     -3.97238944	     -2.21898609	      2.63414143	      0.14572153	      0.90252000	     -0.10558668	     -1.80949235	     -6.31343786	    -13.39595720	      0.41400636	      0.00722577	      8.36147066	     -1.15458222	     -7.49999987	      1.28240114	    -11.24448812	     10.17197792	      0.34081447	      0.00594833	      7.01661987	     -3.18281359	     -7.49999987	      0.68393212	      2.91309108	     -6.54516373	     28.49404590	      3.52833853	     60.84995919	    124.22670977	     91.92442311	     44.36538197	     10.81786314	     72.00924918	    120.90853556	     70.59023775
     19.90000000	     -4.00850716	     -2.22623460	      2.67284197	      0.15081061	      0.90357977	     -0.10260023	     -1.82179773	     -6.28900362	    -13.40759426	      0.39897101	      0.00696336	      8.35732227	     -1.10123694	     -7.49999987	      1.33924756	    -11.26857173	     10.18560802	      0.33601794	      0.00586462	      6.97211384	     -3.18751484	     -7.49999987	      0.72823540	      2.83176109	     -6.46120964	     28.63451266	      3.52824940	     60.82897650	    124.20897317	     91.97442055	     44.33495762	     10.78919330	     71.93862201	    120.89582605	     70.60223614
     19.91666670	     -4.13332914	     -2.24499118	      2.67953099	      0.15112212	      0.90319706	     -0.10283176	     -1.71152586	     -6.28059570	    -13.69373474	      0.40297921	      0.00703331	      8.47102171	     -0.66519190	     -7.49999987	      1.48213828	    -11.28255293	     10.16198158	      0.33235157	      0.00580063	      6.94808118	     -3.35887048	     -7.49999987	      0.95345489	      2.83400867	     -6.48314535	     28.84097600	      3.54596099	     61.09566991	    124.08496301	     94.73984043	     44.00774176	     10.72054350	     71.71732205	    121.02213229	     71.67311369
     19.93333330	     -4.18076942	     -2.28103458	      2.57094237	      0.15086804	      0.90379988	     -0.10270897	     -1.66695444	     -6.21549526	    -13.32869442	      0.37894105	      0.00661377	      8.34163356	     -1.06135356	     -7.49999987	      1.47129313	    -11.36281746	      9.74248864	      0.32022332	      0.00558895	      6.92559653	     -3.12004445	     -7.49999987	      1.11091635	      2.79895621	     -6.39983298	     28.90817265	      3.54891552	     61.53393955	    123.93914745	     91.81285856	     43.66441771	     10.66477734	     71.77792871	    121.02353307	     70.93540020
     19.95000000	     -4.48249343	     -2.23793035	      2.55810632	      0.14534141	      0.90763344	     -0.10529289	     -1.28953475	     -6.32123164	    -13.28853515	      0.39069351	      0.00681889	      8.11440351	     -1.36031326	     -7.49999987	      1.83594538	    -11.26250214	      9.43147062	      0.31188826	      0.00544348	      6.84627816	     -2.83123741	     -7.49999987	      1.27628089	      2.79707734	     -6.24092187	     28.91740510	      3.29157515	     61.83715672	    124.01922959	     91.37224588	     43.32448528	     10.56311502	     72.07789819	    121.07971693	     70.76594891
     19.96666670	     -4.33543964	     -2.17899050	      2.59097358	      0.14511525	      0.90811548	     -0.10545005	     -1.36660533	     -6.42571642	    -13.51650223	      0.39434484	      0.00688262	      8.24973330	     -0.94830137	     -7.49999987	      1.78229906	    -11.14876098	      9.50040724	      0.31091415	      0.00542648	      6.56369154	     -3.17799277	     -7.49999987	      0.81843733	      2.78147157	     -6.13457417	     29.20903213	      3.12944337	     62.05942187	    123.92747233	     91.40367121	     43.31065327	     10.55855792	     72.51800694	    121.18573013	     70.81210768
     19.98333330	     -4.35224662	     -2.16585879	      2.65281545	      0.14540920	      0.90794131	     -0.10522179	     -1.27593878	     -6.47171645	    -13.53588254	      0.40778363	      0.00711717	      8.23307433	     -0.93051281	     -7.49999987	      1.89149260	    -11.10219524	      9.42863809	      0.31936546	      0.00557398	      6.51184694	     -3.18394629	     -7.49999987	      0.64376713	      2.81349429	     -6.12148972	     29.21646334	      3.05505727	     62.06545477	    123.87806755	     91.41849431	     43.24931663	     10.51470169	     72.57190588	    121.16294058	     70.82255977
